#!OML:ASF X:\für Bonn\!DataBase\2005_08_10_Bjorn_Final\c3d\bjorn.ASF
:FULLY-SPECIFIED
:DEGREES
676
root 0.359706 1.65421 20.4207 -274.19 -5.0676 -533.902
lowerback 3.07112 0.242701 -1.61686
upperback 2.99431 0.180912 -2.48112
thorax 1.35244 0.0271033 -1.64402
lowerneck -17.4002 -5.58036 -1.06698
upperneck 12.8097 -8.47673 5.4184
head 7.0596 -3.78419 0.965167
rclavicle -3.18055e-015 -2.48481e-016
rhumerus -37.7224 14.5639 -70.1852
rradius 56.9239
rwrist 1.95469
rhand -10.0504 13.4098
rfingers 7.12502
rthumb 15.9351 -15.9547
lclavicle -3.18055e-015 -2.48481e-016
lhumerus -35.4507 -36.7695 74.391
lradius 58.5968
lwrist -10.52
lhand -43.0696 -369.568
lfingers 7.12502
lthumb -15.9254 19.7973
rfemur 11.5276 -13.9386 5.92975
rtibia -1.03368e-014
rfoot 21.3166 -9.36966
rtoes 13.4783
lfemur -49.1062 -7.61548 -10.3294
ltibia 112.134
lfoot 24.3737 4.75343
ltoes -1.5767
677
root 0.356578 1.65104 20.4169 -274.203 -5.10083 -533.807
lowerback 3.10163 0.223086 -1.71314
upperback 2.98309 0.15289 -2.43912
thorax 1.32292 0.01179 -1.54632
lowerneck -17.5164 -5.59411 -1.14283
upperneck 12.9839 -8.4699 5.34812
head 7.13526 -3.78189 0.950245
rclavicle 4.77083e-015 -1.16289e-014
rhumerus -37.8379 14.9422 -70.4125
rradius 56.8983
rwrist 2.40541
rhand -9.93909 13.3585
rfingers 7.12502
rthumb 16.0423 -15.9974
lclavicle 4.77083e-015 -1.16289e-014
lhumerus -35.6532 -37.1595 74.8512
lradius 58.7221
lwrist -10.2074
lhand -42.5063 -369.137
lfingers 7.12502
lthumb -15.3829 20.2703
rfemur 11.5441 -14.0361 5.87791
rtibia -7.95139e-015
rfoot 21.4881 -9.20544
rtoes 13.6674
lfemur -49.1439 -7.85441 -10.681
ltibia 111.807
lfoot 24.021 5.08404
ltoes -1.31367
678
root 0.35385 1.64873 20.4127 -274.212 -5.08821 -533.732
lowerback 3.13037 0.210278 -1.75667
upperback 2.95764 0.135382 -2.39212
thorax 1.28015 0.00310989 -1.47318
lowerneck -17.5229 -5.60542 -1.2001
upperneck 13.0781 -8.45795 5.27115
head 7.1651 -3.78143 0.934781
rclavicle 1.35174e-014 -3.32467e-014
rhumerus -37.9852 15.3002 -70.6861
rradius 56.8678
rwrist 2.87363
rhand -9.84239 13.3443
rfingers 7.12502
rthumb 16.1354 -16.004
lclavicle 1.35174e-014 -3.32467e-014
lhumerus -35.9033 -37.5051 75.3316
lradius 58.8668
lwrist -9.96799
lhand -42.0385 -368.686
lfingers 7.12502
lthumb -14.9323 20.7553
rfemur 11.5627 -14.12 5.87998
rtibia -8.74653e-015
rfoot 21.634 -9.00705
rtoes 13.6685
lfemur -49.1359 -8.03463 -10.9692
ltibia 111.4
lfoot 23.6994 5.2757
ltoes -1.25999
679
root 0.350398 1.64511 20.4065 -274.222 -5.08623 -533.639
lowerback 3.15434 0.18154 -1.80787
upperback 2.94721 0.0969385 -2.34266
thorax 1.25529 -0.0163146 -1.39284
lowerneck -17.5657 -5.60685 -1.27905
upperneck 13.1594 -8.42826 5.21099
head 7.19806 -3.77108 0.929502
rclavicle -1.66979e-014 9.24349e-015
rhumerus -38.0788 15.6848 -70.9258
rradius 56.8746
rwrist 3.38009
rhand -9.67097 13.4169
rfingers 7.12502
rthumb 16.3005 -15.9179
lclavicle -1.66979e-014 9.24349e-015
lhumerus -36.109 -37.7911 75.7676
lradius 59.0409
lwrist -9.77491
lhand -41.547 -368.233
lfingers 7.12502
lthumb -14.4587 21.2435
rfemur 11.5778 -14.2198 5.86617
rtibia -2.38542e-014
rfoot 21.7244 -8.91916
rtoes 13.6303
lfemur -49.1123 -8.22564 -11.2764
ltibia 110.905
lfoot 23.4981 5.32723
ltoes -1.61224
680
root 0.347558 1.64239 20.3993 -274.248 -5.08399 -533.557
lowerback 3.19764 0.157922 -1.86318
upperback 2.93182 0.0642104 -2.29363
thorax 1.21473 -0.0329378 -1.31073
lowerneck -17.5753 -5.60482 -1.36653
upperneck 13.2374 -8.39165 5.1524
head 7.22451 -3.75852 0.927814
rclavicle -7.95139e-016 1.78409e-014
rhumerus -38.2176 16.0786 -71.1929
rradius 56.9334
rwrist 3.81304
rhand -9.50552 13.4565
rfingers 7.12502
rthumb 16.4598 -15.8652
lclavicle -7.95139e-016 1.78409e-014
lhumerus -36.3638 -38.0668 76.2179
lradius 59.2726
lwrist -9.626
lhand -41.099 -367.832
lfingers 7.12502
lthumb -14.027 21.6752
rfemur 11.6202 -14.3043 5.84593
rtibia 5.56597e-015
rfoot 21.7477 -8.81322
rtoes 13.4353
lfemur -49.0058 -8.39989 -11.5701
ltibia 110.302
lfoot 23.3767 5.27113
ltoes -2.00221
681
root 0.344534 1.63919 20.3922 -274.242 -5.06901 -533.478
lowerback 3.21246 0.133672 -1.88838
upperback 2.90648 0.0325205 -2.25563
thorax 1.18004 -0.0481631 -1.25678
lowerneck -17.5759 -5.60329 -1.44118
upperneck 13.2991 -8.35874 5.09537
head 7.24383 -3.74788 0.9246
rclavicle 2.62396e-014 9.93923e-016
rhumerus -38.3322 16.4224 -71.4589
rradius 57.0134
rwrist 4.17037
rhand -9.13159 13.5286
rfingers 7.12502
rthumb 16.8198 -15.7629
lclavicle 2.62396e-014 9.93923e-016
lhumerus -36.6308 -38.3489 76.6409
lradius 59.538
lwrist -9.51139
lhand -40.6945 -367.532
lfingers 7.12502
lthumb -13.6372 22.0015
rfemur 11.626 -14.3938 5.84724
rtibia 2.22639e-014
rfoot 21.7223 -8.68359
rtoes 12.9152
lfemur -48.9125 -8.55111 -11.8328
ltibia 109.629
lfoot 23.3266 5.17123
ltoes -2.10309
682
root 0.342322 1.63615 20.3853 -274.271 -5.05074 -533.398
lowerback 3.26364 0.112453 -1.91151
upperback 2.88779 0.00305434 -2.22041
thorax 1.13193 -0.0625231 -1.20689
lowerneck -17.5278 -5.60591 -1.53555
upperneck 13.3062 -8.32948 5.06824
head 7.23941 -3.73979 0.935636
rclavicle 3.26007e-014 -9.79014e-015
rhumerus -38.4847 16.7547 -71.7408
rradius 57.2082
rwrist 4.36112
rhand -8.68206 13.5012
rfingers 7.12502
rthumb 17.2525 -15.753
lclavicle 3.26007e-014 -9.79014e-015
lhumerus -36.888 -38.5809 77.0517
lradius 59.8161
lwrist -9.4749
lhand -40.3346 -367.398
lfingers 7.12502
lthumb -13.2903 22.158
rfemur 11.6714 -14.4768 5.84198
rtibia 6.36111e-015
rfoot 21.6624 -8.63004
rtoes 12.4777
lfemur -48.7508 -8.70715 -12.0897
ltibia 108.877
lfoot 23.3519 5.0524
ltoes -1.81775
683
root 0.339307 1.63287 20.378 -274.272 -5.05169 -533.318
lowerback 3.27987 0.0877469 -1.95719
upperback 2.87789 -0.0300954 -2.18231
thorax 1.11248 -0.079249 -1.14136
lowerneck -17.5343 -5.59371 -1.61274
upperneck 13.3215 -8.27913 5.01938
head 7.24444 -3.72063 0.938062
rclavicle 2.8625e-014 -2.21148e-014
rhumerus -38.6077 17.1712 -72.012
rradius 57.4351
rwrist 4.46549
rhand -8.32169 13.4646
rfingers 7.12502
rthumb 17.5993 -15.7589
lclavicle 2.8625e-014 -2.21148e-014
lhumerus -37.0926 -38.8002 77.4386
lradius 60.0894
lwrist -9.4998
lhand -40.0624 -367.304
lfingers 7.12502
lthumb -13.0279 22.2692
rfemur 11.6882 -14.5647 5.81801
rtibia -7.95139e-015
rfoot 21.5472 -8.56845
rtoes 11.9093
lfemur -48.598 -8.86694 -12.3591
ltibia 108.065
lfoot 23.4067 4.8867
ltoes -1.31709
684
root 0.336486 1.62977 20.3716 -274.283 -5.05026 -533.244
lowerback 3.31105 0.0670777 -1.98204
upperback 2.85697 -0.058388 -2.16268
thorax 1.07343 -0.092996 -1.1065
lowerneck -17.4742 -5.58395 -1.64662
upperneck 13.3059 -8.23859 4.94836
head 7.2256 -3.7086 0.927442
rclavicle 1.74931e-014 -2.43511e-014
rhumerus -38.7887 17.5368 -72.3276
rradius 57.7019
rwrist 4.62251
rhand -8.06184 13.4671
rfingers 7.12502
rthumb 17.8493 -15.7338
lclavicle 1.74931e-014 -2.43511e-014
lhumerus -37.3459 -39.0337 77.8219
lradius 60.3898
lwrist -9.54333
lhand -39.8664 -367.347
lfingers 7.12502
lthumb -12.839 22.2381
rfemur 11.72 -14.6422 5.78836
rtibia -1.74931e-014
rfoot 21.3958 -8.59145
rtoes 11.6764
lfemur -48.4094 -9.01457 -12.6253
ltibia 107.193
lfoot 23.4955 4.6656
ltoes -0.67502
685
root 0.334085 1.62707 20.3683 -274.286 -5.03335 -533.181
lowerback 3.33194 0.0389742 -2.00993
upperback 2.8403 -0.0955653 -2.11922
thorax 1.04455 -0.111168 -1.04526
lowerneck -17.4119 -5.5632 -1.73237
upperneck 13.2658 -8.17014 4.8949
head 7.20036 -3.68368 0.934444
rclavicle 1.59028e-015 -1.56543e-014
rhumerus -38.9136 17.9469 -72.6115
rradius 57.9378
rwrist 4.81241
rhand -7.86723 13.5113
rfingers 7.12502
rthumb 18.0366 -15.6724
lclavicle 1.59028e-015 -1.56543e-014
lhumerus -37.6125 -39.187 78.2221
lradius 60.7115
lwrist -9.69639
lhand -39.7364 -367.423
lfingers 7.12502
lthumb -12.7137 22.1696
rfemur 11.7421 -14.7136 5.78129
rtibia 1.59028e-015
rfoot 21.2349 -8.5659
rtoes 11.3828
lfemur -48.2164 -9.16469 -12.8622
ltibia 106.264
lfoot 23.6221 4.46769
ltoes 0.0959149
686
root 0.331324 1.6246 20.367 -274.297 -5.03191 -533.108
lowerback 3.35521 0.0193533 -2.01448
upperback 2.83251 -0.122189 -2.11786
thorax 1.02347 -0.124126 -1.04059
lowerneck -17.3592 -5.54909 -1.75588
upperneck 13.2213 -8.12881 4.84179
head 7.1738 -3.66976 0.92817
rclavicle 1.90833e-014 1.86361e-014
rhumerus -39.0943 18.2825 -72.9552
rradius 58.2331
rwrist 5.03071
rhand -7.7979 13.4977
rfingers 7.12502
rthumb 18.1033 -15.6798
lclavicle 1.90833e-014 1.86361e-014
lhumerus -37.8291 -39.415 78.5496
lradius 61.0387
lwrist -9.85502
lhand -39.6817 -367.57
lfingers 7.12502
lthumb -12.6609 22.0266
rfemur 11.778 -14.7906 5.74808
rtibia -1.59028e-014
rfoot 21.0873 -8.5425
rtoes 11.2822
lfemur -48.004 -9.32569 -13.1157
ltibia 105.272
lfoot 23.784 4.27025
ltoes 0.740776
687
root 0.328335 1.62213 20.3663 -274.318 -5.01504 -533.051
lowerback 3.39122 -0.00563188 -2.03746
upperback 2.82809 -0.156019 -2.07355
thorax 0.998846 -0.140932 -0.981283
lowerneck -17.3213 -5.52408 -1.84158
upperneck 13.1743 -8.05687 4.80083
head 7.15097 -3.6416 0.938993
rclavicle 1.59028e-015 -2.01269e-014
rhumerus -39.2376 18.6872 -73.2417
rradius 58.5308
rwrist 5.19897
rhand -7.76947 13.5128
rfingers 7.12502
rthumb 18.1306 -15.6621
lclavicle 1.59028e-015 -2.01269e-014
lhumerus -38.0848 -39.5834 78.938
lradius 61.3836
lwrist -10.0667
lhand -39.698 -367.748
lfingers 7.12502
lthumb -12.6767 21.8471
rfemur 11.8161 -14.8506 5.73156
rtibia 1.90833e-014
rfoot 20.9169 -8.55441
rtoes 11.3217
lfemur -47.753 -9.47374 -13.3519
ltibia 104.221
lfoot 23.8294 4.02578
ltoes 0.46325
